<svg width="48" height="47" viewBox="0 0 48 47" fill="none" xmlns="http://www.w3.org/2000/svg">
<g id="SVG">
<g id="Clip path group">
<mask id="mask0_148_911" style="mask-type:luminance" maskUnits="userSpaceOnUse" x="0" y="0" width="48" height="46">
<g id="clip0_21_15576">
<path id="Vector" d="M48 0.25H0V45.5458H48V0.25Z" fill="white"/>
</g>
</mask>
<g mask="url(#mask0_148_911)">
<g id="Group">
<g id="Mask group">
<mask id="mask1_148_911" style="mask-type:luminance" maskUnits="userSpaceOnUse" x="0" y="0" width="48" height="46">
<g id="Group_2">
<path id="Vector_2" d="M44.8195 33.0352C42.7519 37.9409 38.9279 41.5567 33.3475 43.8825C27.7671 46.2084 22.5869 45.8565 17.8069 42.8271C13.0269 39.7977 8.40256 36.1819 3.93381 31.9797C-0.534934 27.7776 -0.979586 23.1846 2.59986 18.2006C6.1793 13.2167 10.8037 8.60419 16.473 4.36297C22.1423 0.121746 28.8232 -0.767541 36.5156 1.6951C44.2081 4.15775 48.0321 8.77032 47.9876 15.5328C47.9432 22.2953 46.8871 28.1294 44.8195 33.0352Z" fill="white"/>
</g>
</mask>
<g mask="url(#mask1_148_911)">
<g id="Group_3">
<path id="Vector_3" d="M44.8195 33.0352C42.7519 37.9409 38.9279 41.5567 33.3475 43.8825C27.7671 46.2084 22.5869 45.8565 17.8069 42.8271C13.0269 39.7977 8.40256 36.1819 3.93381 31.9797C-0.534934 27.7776 -0.979586 23.1846 2.59986 18.2006C6.1793 13.2167 10.8037 8.60419 16.473 4.36297C22.1423 0.121746 28.8232 -0.767541 36.5156 1.6951C44.2081 4.15775 48.0321 8.77032 47.9876 15.5328C47.9432 22.2953 46.8871 28.1294 44.8195 33.0352Z" fill="#F6F3FC"/>
</g>
</g>
</g>
</g>
</g>
</g>
<g id="Clip path group_2">
<mask id="mask2_148_911" style="mask-type:luminance" maskUnits="userSpaceOnUse" x="8" y="7" width="32" height="33">
<g id="clip1_21_15576">
<path id="Vector_4" d="M40 7.25H8V39.25H40V7.25Z" fill="white"/>
</g>
</mask>
<g mask="url(#mask2_148_911)">
<g id="Group_4">
<path id="Vector_5" d="M23.9999 7.25C17.3643 7.25 11.9658 12.6484 11.9658 19.284V27.216C11.9658 33.8515 17.3643 39.2499 23.9999 39.2499C30.6354 39.2499 36.0339 33.8515 36.0339 27.216V19.284C36.0339 12.6484 30.6354 7.25 23.9999 7.25ZM34.1581 27.216C34.1581 32.8172 29.6011 37.3742 23.9999 37.3742C18.3986 37.3742 13.8416 32.8172 13.8416 27.216V19.284C13.8416 13.6828 18.3986 9.12578 23.9999 9.12578C29.6011 9.12578 34.1581 13.6828 34.1581 19.284V27.216Z" fill="black"/>
<path id="Vector_6" d="M32.2827 19.2841C32.2827 14.7172 28.5672 11.0017 24.0002 11.0017C19.4333 11.0017 15.7178 14.7172 15.7178 19.2841V27.2161C15.7178 31.783 19.4333 35.4985 24.0002 35.4985C27.3585 35.4985 30.2563 33.4893 31.555 30.6099C31.5557 30.6083 31.5563 30.6068 31.5571 30.6052C32.0231 29.5701 32.2828 28.4229 32.2828 27.2161V24.9621C32.2828 24.9568 32.2828 24.9516 32.2828 24.9463L32.2827 19.2841ZM24.1928 26.1765C24.1978 25.2478 24.955 24.4937 25.8848 24.4937C26.7109 24.4937 27.4295 25.1078 27.5564 25.922C27.6149 26.2975 27.8941 26.6005 28.2636 26.6895C28.6327 26.7784 29.0196 26.6357 29.2425 26.328C29.5177 25.9482 29.941 25.7282 30.4069 25.7207V27.2162C30.4069 27.9469 30.2836 28.6493 30.0572 29.3041H23.1373C22.545 29.3041 22.0631 28.8222 22.0631 28.2299C22.0631 27.6376 22.545 27.1557 23.1373 27.1557H23.2557C23.5063 27.1557 23.7465 27.0554 23.9227 26.8772C24.0988 26.699 24.1964 26.4577 24.1935 26.2071C24.1934 26.1974 24.1931 26.1875 24.1928 26.1765ZM24.0002 12.8775C27.4057 12.8775 30.1987 15.5483 30.3954 18.9053H17.6051C17.8018 15.5483 20.5948 12.8775 24.0002 12.8775ZM24.0002 33.6228C20.4676 33.6228 17.5936 30.7488 17.5936 27.2162V20.7811H30.4069V23.845C29.8655 23.849 29.339 23.9851 28.8706 24.2328C28.6896 23.9564 28.4699 23.7042 28.2162 23.485C27.5689 22.9259 26.741 22.618 25.8848 22.618C24.198 22.618 22.7807 23.7947 22.411 25.3704C21.1345 25.6949 20.1873 26.8539 20.1873 28.23C20.1873 29.8566 21.5107 31.1799 23.1373 31.1799H29.03C27.8558 32.6667 26.0376 33.6228 24.0002 33.6228Z" fill="black"/>
<path id="Vector_7" d="M22.935 17.0294H25.0647C25.5826 17.0294 26.0026 16.6095 26.0026 16.0915C26.0026 15.5736 25.5826 15.1536 25.0647 15.1536H22.935C22.417 15.1536 21.9971 15.5736 21.9971 16.0915C21.9971 16.6095 22.417 17.0294 22.935 17.0294Z" fill="black"/>
</g>
</g>
</g>
</g>
</svg>
