<svg width="17" height="16" viewBox="0 0 17 16" fill="none" xmlns="http://www.w3.org/2000/svg">
<g id="calendar.svg" clip-path="url(#clip0_148_322)">
<g id="Clip path group">
<mask id="mask0_148_322" style="mask-type:luminance" maskUnits="userSpaceOnUse" x="0" y="0" width="17" height="16">
<g id="a">
<path id="Vector" d="M16.7998 0H0.799805V16H16.7998V0Z" fill="white"/>
</g>
</mask>
<g mask="url(#mask0_148_322)">
<g id="Group">
<path id="Vector_2" d="M15.1998 1.6H14.3998V0.8C14.3998 0.32 14.0798 0 13.5998 0C13.1198 0 12.7998 0.32 12.7998 0.8V1.6H4.7998V0.8C4.7998 0.32 4.4798 0 3.9998 0C3.5198 0 3.1998 0.32 3.1998 0.8V1.6H1.5998C1.1998 1.6 0.799805 1.92 0.799805 2.4V13.6C0.799805 14.08 1.1998 14.4 1.5998 14.4H6.4798C5.9198 13.44 5.5998 12.32 5.5998 11.2C5.5998 7.68 8.4798 4.8 11.9998 4.8C13.5198 4.8 14.8798 5.36 15.9998 6.24V2.4C15.9998 2 15.5998 1.6 15.1998 1.6Z" fill="#D6D7D8"/>
<path id="Vector_3" d="M11.9997 6.3999C9.35971 6.3999 7.19971 8.5599 7.19971 11.1999C7.19971 13.8399 9.35971 15.9999 11.9997 15.9999C14.6397 15.9999 16.7997 13.8399 16.7997 11.1999C16.7997 8.5599 14.6397 6.3999 11.9997 6.3999ZM13.5997 11.9999H11.9997C11.5197 11.9999 11.1997 11.6799 11.1997 11.1999V8.7999C11.1997 8.3199 11.5197 7.9999 11.9997 7.9999C12.4797 7.9999 12.7997 8.3199 12.7997 8.7999V10.3999H13.5997C14.0797 10.3999 14.3997 10.7199 14.3997 11.1999C14.3997 11.6799 14.0797 11.9999 13.5997 11.9999Z" fill="#D6D7D8"/>
</g>
</g>
</g>
</g>
<defs>
<clipPath id="clip0_148_322">
<rect width="16" height="16" fill="white" transform="translate(0.799805)"/>
</clipPath>
</defs>
</svg>
