<svg width="25" height="25" viewBox="0 0 25 25" fill="none" xmlns="http://www.w3.org/2000/svg">
<g id="global.svg">
<path id="Vector" d="M20.7405 6.72779C20.7401 6.72135 20.7394 6.7149 20.7383 6.70849C20.7133 6.67278 20.6826 6.64205 20.6569 6.60705C20.4701 6.35268 20.2725 6.10785 20.0638 5.87252C20.0067 5.80821 19.9495 5.74462 19.8909 5.68174C19.6761 5.45169 19.4508 5.23231 19.215 5.02369C19.1714 4.98509 19.1307 4.94511 19.0871 4.90722C18.506 4.4094 17.8697 3.97977 17.1908 3.62685C17.1636 3.61257 17.1351 3.60043 17.1072 3.58611C16.8048 3.43246 16.4948 3.29435 16.1783 3.17239C16.1069 3.14669 16.0418 3.12236 15.974 3.10093C15.6925 2.99949 15.4067 2.91065 15.1166 2.83441C15.0308 2.81155 14.9451 2.78798 14.8579 2.76797C14.5721 2.70153 14.2863 2.65079 13.9941 2.60934C13.9055 2.59649 13.8183 2.57932 13.729 2.56861C12.9763 2.47713 12.2153 2.47713 11.4625 2.56861C11.3732 2.57932 11.2861 2.59649 11.1974 2.60934C10.9052 2.65079 10.6166 2.70153 10.3336 2.76797C10.2465 2.78798 10.1607 2.81155 10.075 2.83441C9.78298 2.91061 9.4972 2.99945 9.21758 3.10093C9.14612 3.12521 9.0811 3.14954 9.01324 3.17239C8.69678 3.29435 8.38672 3.43242 8.08436 3.58611C8.05648 3.60039 8.02793 3.61253 8.00076 3.62685C7.31956 3.9794 6.68115 4.40898 6.098 4.90722C6.05442 4.94507 6.01369 4.98509 5.97011 5.02369C5.73193 5.23327 5.50661 5.45265 5.29418 5.68174C5.23561 5.74462 5.17843 5.80821 5.12128 5.87252C4.91216 6.10735 4.71447 6.35218 4.52825 6.60701C4.50255 6.64201 4.47182 6.67274 4.44678 6.70845C4.44352 6.71469 4.44063 6.72114 4.4382 6.72775C1.97373 10.1816 1.97373 14.819 4.4382 18.2728C4.44063 18.2794 4.44347 18.2858 4.44678 18.2921C4.47177 18.3278 4.5025 18.3585 4.52825 18.3935C4.71451 18.6479 4.91216 18.8927 5.12128 19.128C5.17843 19.1923 5.23561 19.2559 5.29418 19.3188C5.5095 19.5489 5.73478 19.7682 5.97011 19.9769C6.01369 20.0155 6.05442 20.0554 6.098 20.0933C6.6791 20.5912 7.31537 21.0208 7.99431 21.3737C8.02148 21.388 8.05003 21.4001 8.07792 21.4144C8.38027 21.5681 8.69029 21.7062 9.00679 21.8282C9.07826 21.8539 9.14327 21.8782 9.21114 21.8996C9.49264 22.0011 9.77846 22.0899 10.0685 22.1661C10.1543 22.189 10.24 22.2126 10.3272 22.2326C10.613 22.299 10.8987 22.3498 11.191 22.3912C11.2796 22.4041 11.3668 22.4212 11.4561 22.4319C12.2088 22.5234 12.9698 22.5234 13.7225 22.4319C13.8118 22.4212 13.899 22.4041 13.9876 22.3912C14.2798 22.3498 14.5685 22.299 14.8515 22.2326C14.9386 22.2126 15.0244 22.189 15.1101 22.1661C15.4026 22.0899 15.6884 22.0011 15.9675 21.8996C16.039 21.8753 16.104 21.851 16.1719 21.8282C16.4883 21.7062 16.7984 21.5681 17.1008 21.4144C17.1286 21.4002 17.1572 21.388 17.1844 21.3737C17.8633 21.0207 18.4996 20.5912 19.0807 20.0933C19.1242 20.0554 19.165 20.0155 19.2086 19.9769C19.4467 19.7677 19.6721 19.5484 19.8845 19.3188C19.9431 19.2559 20.0002 19.1923 20.0574 19.128C20.2665 18.8927 20.4642 18.6479 20.6504 18.3935C20.6761 18.3585 20.7069 18.3278 20.7319 18.2921C20.7352 18.2858 20.738 18.2794 20.7405 18.2728C23.2049 14.819 23.2049 10.1816 20.7405 6.72779ZM19.9252 8.07968C20.6086 9.20507 21.0212 10.4738 21.1306 11.7858H16.8507C16.7983 10.9345 16.6643 10.0901 16.4506 9.26435C17.6595 9.03794 18.8297 8.63896 19.9252 8.07968ZM14.4106 4.12341C14.4507 4.13271 14.4892 4.14556 14.5292 4.15486C14.785 4.21489 15.0387 4.28347 15.2866 4.36921C15.3245 4.38206 15.3617 4.39709 15.3988 4.41066C15.6446 4.4964 15.8868 4.59143 16.1241 4.69647C16.1655 4.71577 16.2063 4.73721 16.2477 4.75651C16.4749 4.86465 16.6969 4.98158 16.9136 5.10734L17.0565 5.19379C17.2623 5.31956 17.4624 5.45412 17.6567 5.59751C17.7067 5.63393 17.7567 5.66897 17.806 5.70895C17.9966 5.85184 18.179 6.00498 18.3533 6.16839C18.3991 6.20983 18.4462 6.25057 18.4912 6.29344C18.6742 6.46706 18.8485 6.65068 19.0171 6.84075C19.0386 6.86574 19.0614 6.8886 19.0828 6.91221C18.1154 7.37328 17.0905 7.70251 16.0355 7.89107C15.5467 6.54752 14.9011 5.26635 14.112 4.07418C14.2113 4.09202 14.3128 4.10202 14.4106 4.12341ZM9.76067 11.7858C9.81702 11.0127 9.94864 10.2469 10.1537 9.49939C10.9632 9.59555 11.7777 9.64324 12.593 9.64227C13.409 9.64202 14.2242 9.59312 15.0344 9.49579C15.2391 10.2445 15.37 11.0115 15.4252 11.7858H9.76067ZM15.4252 13.2148C15.3689 13.9879 15.2373 14.7537 15.0323 15.5012C14.2227 15.4051 13.4082 15.3574 12.5929 15.3584C11.777 15.3574 10.9617 15.4051 10.1515 15.5012C9.94705 14.7537 9.81618 13.9879 9.76062 13.2148H15.4252ZM12.5929 4.39211C13.406 5.54455 14.0748 6.79235 14.5843 8.10756C13.9228 8.17781 13.2581 8.21311 12.5929 8.21331C11.9285 8.21252 11.2645 8.17702 10.6037 8.10685C11.1138 6.79252 11.7818 5.54513 12.5929 4.39211ZM6.16955 6.83999C6.33748 6.64992 6.51252 6.4663 6.69543 6.29268C6.74043 6.24981 6.78762 6.20908 6.83333 6.16763C7.00959 6.00712 7.19204 5.85397 7.38064 5.7082C7.42996 5.67031 7.47995 5.63673 7.52998 5.59675C7.72432 5.45386 7.9244 5.31927 8.13017 5.19304L8.27305 5.10659C8.48979 4.9799 8.71176 4.86293 8.93897 4.75575C8.98041 4.73645 9.02115 4.71502 9.0626 4.69572C9.29981 4.58854 9.54204 4.49351 9.78784 4.4099C9.82497 4.39634 9.8593 4.38131 9.89999 4.36845C10.1479 4.28556 10.4002 4.21698 10.6573 4.1541C10.6974 4.14481 10.7359 4.13196 10.7767 4.12337C10.8745 4.10194 10.976 4.09193 11.0753 4.07406C10.2859 5.26643 9.64013 6.54786 9.15119 7.89166C8.09621 7.7031 7.07126 7.37387 6.10382 6.9128C6.12526 6.88785 6.14812 6.86499 6.16955 6.83999ZM5.26069 8.07968C6.35594 8.63892 7.52588 9.0379 8.73462 9.26435C8.52115 10.0901 8.38739 10.9345 8.33522 11.7858H4.05534C4.16477 10.4738 4.5774 9.20507 5.26069 8.07968ZM5.26069 16.921C4.57736 15.7956 4.16473 14.5269 4.05534 13.2148H8.33522C8.38764 14.0662 8.52161 14.9106 8.73533 15.7363C7.52638 15.9627 6.35619 16.3617 5.26069 16.921ZM10.7752 20.8772C10.7352 20.8679 10.6966 20.8551 10.6566 20.8458C10.4009 20.7857 10.1472 20.7172 9.89928 20.6314C9.86139 20.6186 9.82426 20.6035 9.78708 20.59C9.54129 20.5042 9.2991 20.4092 9.06184 20.3042C9.0204 20.2849 8.97966 20.2634 8.93821 20.2441C8.71101 20.136 8.48904 20.0191 8.2723 19.8933L8.12941 19.8068C7.92364 19.6811 7.72357 19.5465 7.52922 19.4031C7.4792 19.3667 7.42921 19.3317 7.37989 19.2917C7.18936 19.1488 7.00691 18.9957 6.83258 18.8322C6.78686 18.7908 6.73968 18.7501 6.69467 18.7072C6.51176 18.5336 6.33743 18.35 6.1688 18.1599C6.14736 18.1349 6.12451 18.112 6.10307 18.0884C7.07054 17.6274 8.09546 17.2981 9.15043 17.1096C9.63917 18.4531 10.2848 19.7343 11.0738 20.9265C10.9746 20.9087 10.8731 20.8987 10.7752 20.8772ZM12.5929 20.6086C11.7798 19.4561 11.111 18.2083 10.6016 16.8931C11.9248 16.7507 13.2595 16.7507 14.5828 16.8931C14.0728 18.2074 13.4041 19.4555 12.5929 20.6086ZM19.0164 18.1606C18.8484 18.3507 18.6734 18.5343 18.4905 18.708C18.4455 18.7508 18.3983 18.7916 18.3526 18.833C18.1763 18.994 17.9939 19.1472 17.8053 19.2924C17.756 19.3303 17.706 19.3675 17.6559 19.4039C17.4616 19.5468 17.2615 19.6814 17.0558 19.8076L16.9129 19.894C16.6966 20.0203 16.4746 20.1372 16.2469 20.2449C16.2055 20.2642 16.1648 20.2856 16.1233 20.3049C15.8861 20.4121 15.6439 20.5071 15.3981 20.5907C15.3609 20.6043 15.3266 20.6193 15.2859 20.6322C15.038 20.7151 14.7858 20.7836 14.5285 20.8465C14.4885 20.8558 14.4499 20.8687 14.4092 20.8773C14.3113 20.8987 14.2098 20.9087 14.1105 20.9266C14.8996 19.7344 15.5453 18.4532 16.034 17.1097C17.089 17.2982 18.1139 17.6275 19.0813 18.0885C19.0607 18.1128 19.0378 18.1356 19.0164 18.1606ZM19.9252 16.921C18.83 16.3618 17.66 15.9628 16.4513 15.7363C16.6648 14.9105 16.7985 14.0662 16.8507 13.2148H21.1306C21.0211 14.5269 20.6085 15.7956 19.9252 16.921Z" fill="white"/>
</g>
</svg>
