<svg width="48" height="47" viewBox="0 0 48 47" fill="none" xmlns="http://www.w3.org/2000/svg">
<g id="SVG">
<g id="Clip path group">
<mask id="mask0_148_874" style="mask-type:luminance" maskUnits="userSpaceOnUse" x="0" y="0" width="48" height="46">
<g id="clip0_21_10174">
<path id="Vector" d="M48 0.25H0V45.5458H48V0.25Z" fill="white"/>
</g>
</mask>
<g mask="url(#mask0_148_874)">
<g id="Group">
<g id="Mask group">
<mask id="mask1_148_874" style="mask-type:luminance" maskUnits="userSpaceOnUse" x="0" y="0" width="48" height="46">
<g id="Group_2">
<path id="Vector_2" d="M44.819 33.0352C42.7514 37.9409 38.9274 41.5567 33.347 43.8825C27.7666 46.2084 22.5864 45.8565 17.8064 42.8271C13.0264 39.7977 8.40207 36.1819 3.93332 31.9797C-0.535422 27.7776 -0.980074 23.1846 2.59937 18.2006C6.17881 13.2167 10.8032 8.60419 16.4725 4.36297C22.1418 0.121746 28.8227 -0.767541 36.5151 1.6951C44.2076 4.15775 48.0316 8.77032 47.9871 15.5328C47.9427 22.2953 46.8866 28.1294 44.819 33.0352Z" fill="white"/>
</g>
</mask>
<g mask="url(#mask1_148_874)">
<g id="Group_3">
<path id="Vector_3" d="M44.819 33.0352C42.7514 37.9409 38.9274 41.5567 33.347 43.8825C27.7666 46.2084 22.5864 45.8565 17.8064 42.8271C13.0264 39.7977 8.40207 36.1819 3.93332 31.9797C-0.535422 27.7776 -0.980074 23.1846 2.59937 18.2006C6.17881 13.2167 10.8032 8.60419 16.4725 4.36297C22.1418 0.121746 28.8227 -0.767541 36.5151 1.6951C44.2076 4.15775 48.0316 8.77032 47.9871 15.5328C47.9427 22.2953 46.8866 28.1294 44.819 33.0352Z" fill="#E4F9F9"/>
</g>
</g>
</g>
</g>
</g>
</g>
<path id="Vector_4" d="M35.5625 22V8.1875C35.5625 7.66975 35.1428 7.25 34.625 7.25H13.375C12.8572 7.25 12.4375 7.66975 12.4375 8.1875V22C12.4375 22.2486 12.5363 22.4871 12.7121 22.6629L13.2992 23.25L12.7121 23.8371C12.5363 24.0129 12.4375 24.2514 12.4375 24.5V38.3125C12.4375 38.8303 12.8572 39.25 13.375 39.25H34.625C35.1428 39.25 35.5625 38.8303 35.5625 38.3125V24.5C35.5625 24.2514 35.4637 24.0129 35.2879 23.8371L34.7008 23.25L35.2879 22.6629C35.4637 22.4871 35.5625 22.2486 35.5625 22ZM33.6875 21.6117L32.7121 22.5871C32.346 22.9532 32.346 23.5468 32.7121 23.9129L33.6875 24.8883V37.375H14.3125V24.8883L15.2879 23.9129C15.654 23.5467 15.654 22.9532 15.2879 22.5871L14.3125 21.6117V9.125H33.6875V21.6117Z" fill="black"/>
<path id="Vector_5" d="M17.7672 17.36L19.2459 18.6713C19.5478 18.939 19.9872 18.9835 20.3367 18.7817L24.7735 16.2201L24.5962 18.9696C24.5629 19.4863 24.9548 19.9321 25.4715 19.9655C25.9882 19.9989 26.434 19.607 26.4674 19.0903L26.7252 15.0934L30.0795 13.1568C30.5279 12.8979 30.6815 12.3245 30.4226 11.8761C30.1637 11.4277 29.5903 11.2741 29.142 11.533L25.7877 13.4696L22.1973 11.6945C21.7332 11.465 21.171 11.6552 20.9414 12.1193C20.7119 12.5835 20.9022 13.1458 21.3663 13.3753L23.836 14.5965L19.9843 16.8202L19.0112 15.9572C18.6238 15.6138 18.0313 15.6493 17.6877 16.0366C17.3442 16.424 17.3798 17.0165 17.7672 17.36Z" fill="black"/>
<path id="Vector_6" d="M17.125 28H30.875C31.3928 28 31.8125 27.5803 31.8125 27.0625C31.8125 26.5447 31.3928 26.125 30.875 26.125H17.125C16.6072 26.125 16.1875 26.5447 16.1875 27.0625C16.1875 27.5803 16.6072 28 17.125 28Z" fill="black"/>
<path id="Vector_7" d="M17.125 31.75H24C24.5178 31.75 24.9375 31.3303 24.9375 30.8125C24.9375 30.2947 24.5178 29.875 24 29.875H17.125C16.6072 29.875 16.1875 30.2947 16.1875 30.8125C16.1875 31.3303 16.6072 31.75 17.125 31.75Z" fill="black"/>
<path id="Vector_8" d="M17.125 35.5H24C24.5178 35.5 24.9375 35.0803 24.9375 34.5625C24.9375 34.0447 24.5178 33.625 24 33.625H17.125C16.6072 33.625 16.1875 34.0447 16.1875 34.5625C16.1875 35.0803 16.6072 35.5 17.125 35.5Z" fill="black"/>
<path id="Vector_9" d="M18.375 24.1875H19.625C20.1428 24.1875 20.5625 23.7678 20.5625 23.25C20.5625 22.7322 20.1428 22.3125 19.625 22.3125H18.375C17.8572 22.3125 17.4375 22.7322 17.4375 23.25C17.4375 23.7678 17.8572 24.1875 18.375 24.1875Z" fill="black"/>
<path id="Vector_10" d="M24.625 22.3125H23.375C22.8572 22.3125 22.4375 22.7322 22.4375 23.25C22.4375 23.7678 22.8572 24.1875 23.375 24.1875H24.625C25.1428 24.1875 25.5625 23.7678 25.5625 23.25C25.5625 22.7322 25.1428 22.3125 24.625 22.3125Z" fill="black"/>
<path id="Vector_11" d="M29.625 22.3125H28.375C27.8572 22.3125 27.4375 22.7322 27.4375 23.25C27.4375 23.7678 27.8572 24.1875 28.375 24.1875H29.625C30.1428 24.1875 30.5625 23.7678 30.5625 23.25C30.5625 22.7322 30.1428 22.3125 29.625 22.3125Z" fill="black"/>
<path id="Vector_12" d="M29 29.875C27.4492 29.875 26.1875 31.1367 26.1875 32.6875C26.1875 34.2383 27.4492 35.5 29 35.5C30.5508 35.5 31.8125 34.2383 31.8125 32.6875C31.8125 31.1367 30.5508 29.875 29 29.875ZM29 33.625C28.4831 33.625 28.0625 33.2044 28.0625 32.6875C28.0625 32.1706 28.4831 31.75 29 31.75C29.5169 31.75 29.9375 32.1706 29.9375 32.6875C29.9375 33.2044 29.5169 33.625 29 33.625Z" fill="black"/>
</g>
</svg>
