<svg width="48" height="47" viewBox="0 0 48 47" fill="none" xmlns="http://www.w3.org/2000/svg">
<g id="SVG">
<g id="Clip path group">
<mask id="mask0_148_895" style="mask-type:luminance" maskUnits="userSpaceOnUse" x="0" y="0" width="48" height="46">
<g id="clip0_21_16353">
<path id="Vector" d="M48 0.25H0V45.5458H48V0.25Z" fill="white"/>
</g>
</mask>
<g mask="url(#mask0_148_895)">
<g id="Group">
<g id="Mask group">
<mask id="mask1_148_895" style="mask-type:luminance" maskUnits="userSpaceOnUse" x="0" y="0" width="48" height="46">
<g id="Group_2">
<path id="Vector_2" d="M44.819 33.0352C42.7514 37.9409 38.9274 41.5567 33.347 43.8825C27.7666 46.2084 22.5864 45.8565 17.8064 42.8271C13.0264 39.7977 8.40207 36.1819 3.93332 31.9797C-0.535422 27.7776 -0.980074 23.1846 2.59937 18.2006C6.17881 13.2167 10.8032 8.60419 16.4725 4.36297C22.1418 0.121746 28.8227 -0.767541 36.5151 1.6951C44.2076 4.15775 48.0316 8.77032 47.9871 15.5328C47.9427 22.2953 46.8866 28.1294 44.819 33.0352Z" fill="white"/>
</g>
</mask>
<g mask="url(#mask1_148_895)">
<g id="Group_3">
<path id="Vector_3" d="M44.819 33.0352C42.7514 37.9409 38.9274 41.5567 33.347 43.8825C27.7666 46.2084 22.5864 45.8565 17.8064 42.8271C13.0264 39.7977 8.40207 36.1819 3.93332 31.9797C-0.535422 27.7776 -0.980074 23.1846 2.59937 18.2006C6.17881 13.2167 10.8032 8.60419 16.4725 4.36297C22.1418 0.121746 28.8227 -0.767541 36.5151 1.6951C44.2076 4.15775 48.0316 8.77032 47.9871 15.5328C47.9427 22.2953 46.8866 28.1294 44.819 33.0352Z" fill="#E3F0FF"/>
</g>
</g>
</g>
</g>
</g>
</g>
<path id="Vector_4" d="M29.6484 14.7812H26.8203V9.125H27.7656C28.2835 9.125 28.7031 8.70525 28.7031 8.1875C28.7031 7.66975 28.2835 7.25 27.7656 7.25H20.2344C19.7166 7.25 19.2969 7.66975 19.2969 8.1875C19.2969 8.70525 19.7166 9.125 20.2344 9.125H21.1798V14.7812H18.3517C16.7965 14.7812 15.5312 16.0464 15.5312 17.6016V32.6641C15.5312 33.9644 16.4161 35.0614 17.615 35.3862C17.4859 35.7092 17.4142 36.0611 17.4142 36.4297C17.4142 37.9848 18.6793 39.25 20.2344 39.25C21.7895 39.25 23.0548 37.9848 23.0548 36.4297C23.0548 36.0982 22.9968 35.7801 22.8912 35.4844H25.1087C25.0032 35.7801 24.9452 36.0982 24.9452 36.4297C24.9452 37.9848 26.2105 39.25 27.7656 39.25C29.3207 39.25 30.5859 37.9848 30.5859 36.4297C30.5859 36.0611 30.5141 35.7092 30.3849 35.3862C31.5839 35.0614 32.4688 33.9644 32.4688 32.6641V17.6016C32.4688 16.0464 31.2036 14.7812 29.6484 14.7812ZM23.0548 9.125H24.9453V14.7812H23.0548V9.125ZM21.1798 36.4297C21.1798 36.9509 20.7556 37.375 20.2344 37.375C19.7131 37.375 19.2892 36.9509 19.2892 36.4297C19.2892 35.9084 19.7131 35.4844 20.2344 35.4844C20.7556 35.4844 21.1798 35.9084 21.1798 36.4297ZM27.7656 37.375C27.2444 37.375 26.8203 36.9509 26.8203 36.4297C26.8203 35.9084 27.2444 35.4844 27.7656 35.4844C28.287 35.4844 28.7109 35.9084 28.7109 36.4297C28.7109 36.9509 28.287 37.375 27.7656 37.375ZM30.5938 32.6641C30.5938 33.1853 30.1697 33.6094 29.6484 33.6094H18.3517C17.8304 33.6094 17.4062 33.1853 17.4062 32.6641V17.6016C17.4062 17.0803 17.8304 16.6562 18.3517 16.6562H29.6484C30.1697 16.6562 30.5938 17.0803 30.5938 17.6016V32.6641Z" fill="black"/>
<path id="Vector_5" d="M20.2344 18.5469C19.7166 18.5469 19.2969 18.9666 19.2969 19.4844V30.7812C19.2969 31.299 19.7166 31.7188 20.2344 31.7188C20.7521 31.7188 21.1719 31.299 21.1719 30.7812V19.4844C21.1719 18.9666 20.7521 18.5469 20.2344 18.5469Z" fill="black"/>
<path id="Vector_6" d="M24 18.5469C23.4822 18.5469 23.0625 18.9666 23.0625 19.4844V30.7812C23.0625 31.299 23.4822 31.7188 24 31.7188C24.5178 31.7188 24.9375 31.299 24.9375 30.7812V19.4844C24.9375 18.9666 24.5178 18.5469 24 18.5469Z" fill="black"/>
<path id="Vector_7" d="M27.7656 18.5469C27.2479 18.5469 26.8281 18.9666 26.8281 19.4844V30.7812C26.8281 31.299 27.2479 31.7188 27.7656 31.7188C28.2834 31.7188 28.7031 31.299 28.7031 30.7812V19.4844C28.7031 18.9666 28.2834 18.5469 27.7656 18.5469Z" fill="black"/>
</g>
</svg>
