<svg width="12" height="13" viewBox="0 0 12 13" fill="none" xmlns="http://www.w3.org/2000/svg">
<g id="star.svg" clip-path="url(#clip0_148_1086)">
<path id="Vector" d="M11.4485 4.83597C11.3733 4.60354 11.1672 4.43846 10.9233 4.41648L7.6103 4.11566L6.30026 1.04938C6.20367 0.824662 5.98368 0.679199 5.73925 0.679199C5.49483 0.679199 5.27484 0.824662 5.17825 1.04991L3.86821 4.11566L0.554701 4.41648C0.311242 4.43899 0.105615 4.60354 0.0300369 4.83597C-0.0455407 5.06839 0.0242569 5.32332 0.208428 5.48403L2.71265 7.68024L1.97421 10.9331C1.92018 11.1722 2.01301 11.4195 2.21145 11.5629C2.31812 11.64 2.44292 11.6792 2.56876 11.6792C2.67727 11.6792 2.7849 11.6499 2.88149 11.5921L5.73925 9.88417L8.59597 11.5921C8.80501 11.7179 9.06852 11.7064 9.26653 11.5629C9.46506 11.419 9.55781 11.1717 9.50377 10.9331L8.76534 7.68024L11.2696 5.48446C11.4537 5.32332 11.524 5.06883 11.4485 4.83597Z" fill="#FFC700"/>
</g>
<defs>
<clipPath id="clip0_148_1086">
<rect width="12" height="12" fill="white" transform="translate(0 0.25)"/>
</clipPath>
</defs>
</svg>
