<svg width="27" height="40" viewBox="0 0 27 40" fill="none" xmlns="http://www.w3.org/2000/svg">
<g id="SVG">
<path id="Vector" fill-rule="evenodd" clip-rule="evenodd" d="M12.9721 39.4991C8.7171 39.4991 4.81518 37.4218 2.26676 33.8001C-2.75855 26.658 2.51539 14.8625 2.74208 14.3636C2.9258 13.9594 3.52612 14.0316 3.60747 14.4699C3.76126 15.3015 4.29256 17.2779 5.15293 18.2806C5.10151 15.2925 5.50964 6.27322 11.837 0.616751C12.0555 0.421598 12.5434 0.427768 12.6046 0.989233C12.7694 2.50841 13.5182 7.57279 16.2396 8.95395C16.5072 9.09014 19.041 12.2859 19.4825 15.2516C19.9265 14.6746 20.5412 13.4299 20.8221 10.8182C20.8639 10.4292 21.3458 10.2702 21.6118 10.5561C21.708 10.6596 31.1506 21.047 24.5663 32.5572C22.0801 36.9045 17.7461 39.4991 12.9721 39.4991Z" fill="#FFA725"/>
<path id="Vector_2" fill-rule="evenodd" clip-rule="evenodd" d="M13.6808 36.2816C16.2031 36.2816 18.5162 35.0504 20.0269 32.9035C23.0058 28.6695 19.8795 21.6774 19.7451 21.3817C19.6361 21.142 19.2803 21.1849 19.2321 21.4448C19.1409 21.9377 18.826 23.1093 18.316 23.7036C18.3464 21.9322 18.1046 16.5858 14.3538 13.2326C14.2242 13.1169 13.9351 13.1206 13.8988 13.4533C13.801 14.3539 13.3572 17.3559 11.7439 18.1747C11.5853 18.2554 10.0832 20.15 9.82136 21.908C9.5581 21.5659 9.19362 20.828 9.02726 19.2798C9.00235 19.0492 8.71671 18.9548 8.55926 19.1244C8.50213 19.1859 2.90484 25.3435 6.80791 32.1665C8.28184 34.7435 10.8507 36.2816 13.6808 36.2816Z" fill="#FF871E"/>
<path id="Vector_3" fill-rule="evenodd" clip-rule="evenodd" d="M9.85986 33.6274C9.45699 33.6274 9.24767 33.1357 9.53674 32.8471L16.8513 25.5323C17.2775 25.1061 17.9233 25.7537 17.498 26.1787L10.1832 33.4935C10.0939 33.5829 9.97709 33.6274 9.85986 33.6274Z" fill="white"/>
<path id="Vector_4" fill-rule="evenodd" clip-rule="evenodd" d="M11.1965 29.1139C8.66976 29.1139 8.66816 25.27 11.196 25.27C13.7241 25.27 13.7229 29.1139 11.1965 29.1139ZM11.1965 26.1834C10.3041 26.1834 9.84959 27.2698 10.4835 27.9041C11.4056 28.8264 12.8596 27.43 11.9092 26.4789C11.7189 26.2881 11.4659 26.1834 11.1965 26.1834Z" fill="white"/>
<path id="Vector_5" fill-rule="evenodd" clip-rule="evenodd" d="M15.839 33.7555C13.3121 33.7555 13.3109 29.9119 15.839 29.9119C18.3668 29.9119 18.3666 33.7555 15.839 33.7555ZM15.839 30.8252C14.9464 30.8252 14.4923 31.9116 15.1262 32.546C16.0481 33.4685 17.5021 32.0713 16.552 31.1207C16.3616 30.9299 16.1082 30.8252 15.839 30.8252Z" fill="white"/>
</g>
</svg>
