<svg width="48" height="47" viewBox="0 0 48 47" fill="none" xmlns="http://www.w3.org/2000/svg">
<g id="SVG">
<g id="Clip path group">
<mask id="mask0_148_856" style="mask-type:luminance" maskUnits="userSpaceOnUse" x="0" y="0" width="48" height="46">
<g id="clip0_403_10133">
<path id="Vector" d="M48 0.25H0V45.5458H48V0.25Z" fill="white"/>
</g>
</mask>
<g mask="url(#mask0_148_856)">
<g id="Group">
<g id="Mask group">
<mask id="mask1_148_856" style="mask-type:luminance" maskUnits="userSpaceOnUse" x="0" y="0" width="48" height="46">
<g id="Group_2">
<path id="Vector_2" d="M44.819 33.0352C42.7514 37.9409 38.9274 41.5567 33.347 43.8825C27.7666 46.2084 22.5864 45.8565 17.8064 42.8271C13.0264 39.7977 8.40207 36.1819 3.93332 31.9797C-0.535422 27.7776 -0.980074 23.1846 2.59937 18.2006C6.17881 13.2167 10.8032 8.60419 16.4725 4.36297C22.1418 0.121746 28.8227 -0.767541 36.5151 1.6951C44.2076 4.15775 48.0316 8.77032 47.9871 15.5328C47.9427 22.2953 46.8866 28.1294 44.819 33.0352Z" fill="white"/>
</g>
</mask>
<g mask="url(#mask1_148_856)">
<g id="Group_3">
<path id="Vector_3" d="M44.819 33.0352C42.7514 37.9409 38.9274 41.5567 33.347 43.8825C27.7666 46.2084 22.5864 45.8565 17.8064 42.8271C13.0264 39.7977 8.40207 36.1819 3.93332 31.9797C-0.535422 27.7776 -0.980074 23.1846 2.59937 18.2006C6.17881 13.2167 10.8032 8.60419 16.4725 4.36297C22.1418 0.121746 28.8227 -0.767541 36.5151 1.6951C44.2076 4.15775 48.0316 8.77032 47.9871 15.5328C47.9427 22.2953 46.8866 28.1294 44.819 33.0352Z" fill="#FFF0EC"/>
</g>
</g>
</g>
</g>
</g>
</g>
<g id="Clip path group_2">
<mask id="mask2_148_856" style="mask-type:luminance" maskUnits="userSpaceOnUse" x="8" y="7" width="32" height="33">
<g id="clip1_403_10133">
<path id="Vector_4" d="M40 7.25H8V39.25H40V7.25Z" fill="white"/>
</g>
</mask>
<g mask="url(#mask2_148_856)">
<g id="Group_4">
<path id="Vector_5" d="M36.7991 19.8997C37.6729 18.0227 38.3125 16.0559 38.3125 14.3181C38.3125 10.4207 35.1428 7.25 31.2468 7.25C28.502 7.25 26.1179 8.82373 24.9485 11.1165C24.5408 11.0813 24.1284 11.0625 23.7188 11.0625C15.9292 11.0625 9.625 17.366 9.625 25.1562C9.625 32.9458 15.9285 39.25 23.7188 39.25C31.5083 39.25 37.8125 32.9465 37.8125 25.1562C37.8125 23.4001 37.4973 21.6453 36.7991 19.8997ZM31.2468 9.125C34.1089 9.125 36.4375 11.4546 36.4375 14.3181C36.4375 18.0137 32.8066 23.3015 31.2166 25.4399C29.1726 22.6616 26.0562 17.761 26.0562 14.3181C26.0559 11.4546 28.3845 9.125 31.2468 9.125ZM14.7444 16.8735L21.0342 20.0183L20.3132 23.6228L17.8237 25.2825C17.563 25.4563 17.4062 25.749 17.4062 26.0625V30.0815L13.2817 31.5039C12.1519 29.6526 11.5 27.4792 11.5 25.1562C11.5 21.9631 12.7319 19.0525 14.7444 16.8735ZM14.4338 33.0898L18.6494 31.6362C19.0276 31.5059 19.2812 31.1499 19.2812 30.75V26.5642L21.6763 24.9675C21.8831 24.8296 22.0269 24.6152 22.0754 24.3713L23.0129 19.6838C23.0959 19.2693 22.8911 18.8506 22.5129 18.6616L16.2207 15.5154C18.5173 13.7251 21.3608 12.8108 24.314 12.9524C23.7209 15.9697 25.3665 19.5684 26.8965 22.2559L24.3076 24.4033C23.9229 24.7227 23.8562 25.2876 24.1562 25.6875L25.8438 27.9375H22.0938C21.5759 27.9375 21.1562 28.3572 21.1562 28.875V34.5C21.1562 35.0178 21.5759 35.4375 22.0938 35.4375H26.3855L27.2642 36.8499C22.7056 38.2346 17.655 36.854 14.4338 33.0898ZM29.0398 36.1543L27.7021 34.0046C27.531 33.7297 27.2302 33.5625 26.9062 33.5625H23.0312V29.8125H27.7188C28.4895 29.8125 28.9319 28.9299 28.4688 28.3125L26.1919 25.2766L27.8745 23.8809C29.1873 25.9519 30.3716 27.4338 30.4824 27.5713C30.8562 28.0352 31.563 28.0371 31.9392 27.5752C32.0793 27.4033 33.918 25.1287 35.5845 22.2271C35.8188 23.1792 35.9375 24.1592 35.9375 25.1562C35.9375 29.9875 33.1189 34.1726 29.0398 36.1543Z" fill="black"/>
<path id="Vector_6" d="M31.2483 17.6133C33.0615 17.6133 34.5366 16.1377 34.5366 14.3242C34.5366 12.5105 33.0613 11.0349 31.2483 11.0349C29.4351 11.0349 27.96 12.5105 27.96 14.3242C27.96 16.1377 29.4351 17.6133 31.2483 17.6133ZM31.2483 12.9099C32.0276 12.9099 32.6616 13.5444 32.6616 14.3242C32.6616 15.1038 32.0276 15.7383 31.2483 15.7383C30.469 15.7383 29.835 15.1038 29.835 14.3242C29.835 13.5444 30.469 12.9099 31.2483 12.9099Z" fill="black"/>
</g>
</g>
</g>
</g>
</svg>
